<?xml version="1.0" encoding="UTF-8" standalone="no"?>
<!DOCTYPE svg PUBLIC "-//W3C//DTD SVG 1.1//EN"
 "http://www.w3.org/Graphics/SVG/1.1/DTD/svg11.dtd">
<!-- Generated by graphviz version 2.43.0 (0)
 -->
<!-- Title: dependency&#45;cruiser output Pages: 1 -->
<svg width="506pt" height="340pt"
 viewBox="0.00 0.00 506.00 340.00" xmlns="http://www.w3.org/2000/svg" xmlns:xlink="http://www.w3.org/1999/xlink">
<g id="graph0" class="graph" transform="scale(1 1) rotate(0) translate(4 336)">
<title>dependency&#45;cruiser output</title>
<polygon fill="white" stroke="transparent" points="-4,4 -4,-336 502,-336 502,4 -4,4"/>
<g id="clust1" class="cluster">
<title>cluster_src</title>
<path fill="#ffffff" stroke="black" stroke-width="2" d="M20,-8C20,-8 478,-8 478,-8 484,-8 490,-14 490,-20 490,-20 490,-312 490,-312 490,-318 484,-324 478,-324 478,-324 20,-324 20,-324 14,-324 8,-318 8,-312 8,-312 8,-20 8,-20 8,-14 14,-8 20,-8"/>
<text text-anchor="middle" x="249" y="-312.8" font-family="Helvetica,sans-Serif" font-weight="bold" font-size="9.00">src</text>
</g>
<!-- src/brownianParticle.js -->
<g id="node1" class="node">
<title>src/brownianParticle.js</title>
<g id="a_node1"><a xlink:href="src/brownianParticle.js" xlink:title="brownianParticle.js">
<path fill="#ffffcc" stroke="black" d="M385.5,-136C385.5,-136 296.5,-136 296.5,-136 293.5,-136 290.5,-133 290.5,-130 290.5,-130 290.5,-124 290.5,-124 290.5,-121 293.5,-118 296.5,-118 296.5,-118 385.5,-118 385.5,-118 388.5,-118 391.5,-121 391.5,-124 391.5,-124 391.5,-130 391.5,-130 391.5,-133 388.5,-136 385.5,-136"/>
<text text-anchor="start" x="298.5" y="-124.8" font-family="Helvetica,sans-Serif" font-size="9.00">brownianParticle.js</text>
</a>
</g>
</g>
<!-- src/constants.js -->
<g id="node2" class="node">
<title>src/constants.js</title>
<g id="a_node2"><a xlink:href="src/constants.js" xlink:title="constants.js">
<path fill="#ffffcc" stroke="black" d="M476,-158C476,-158 417,-158 417,-158 414,-158 411,-155 411,-152 411,-152 411,-146 411,-146 411,-143 414,-140 417,-140 417,-140 476,-140 476,-140 479,-140 482,-143 482,-146 482,-146 482,-152 482,-152 482,-155 479,-158 476,-158"/>
<text text-anchor="start" x="419" y="-146.8" font-family="Helvetica,sans-Serif" font-size="9.00">constants.js</text>
</a>
</g>
</g>
<!-- src/brownianParticle.js&#45;&gt;src/constants.js -->
<g id="edge1" class="edge">
<title>src/brownianParticle.js&#45;&gt;src/constants.js</title>
<path fill="none" stroke="#000000" stroke-width="2" stroke-opacity="0.200000" d="M384.4,-136.01C391.15,-137.45 398.12,-138.93 404.83,-140.36"/>
<polygon fill="#000000" fill-opacity="0.200000" stroke="#000000" stroke-width="2" stroke-opacity="0.200000" points="404.61,-142.45 410.91,-141.65 405.48,-138.35 404.61,-142.45"/>
</g>
<!-- src/canvas.js -->
<g id="node3" class="node">
<title>src/canvas.js</title>
<g id="a_node3"><a xlink:href="src/canvas.js" xlink:title="canvas.js">
<path fill="#ffffcc" stroke="black" d="M364,-62C364,-62 318,-62 318,-62 315,-62 312,-59 312,-56 312,-56 312,-50 312,-50 312,-47 315,-44 318,-44 318,-44 364,-44 364,-44 367,-44 370,-47 370,-50 370,-50 370,-56 370,-56 370,-59 367,-62 364,-62"/>
<text text-anchor="start" x="320" y="-50.8" font-family="Helvetica,sans-Serif" font-size="9.00">canvas.js</text>
</a>
</g>
</g>
<!-- src/canvas.js&#45;&gt;src/constants.js -->
<g id="edge2" class="edge">
<title>src/canvas.js&#45;&gt;src/constants.js</title>
<path fill="none" stroke="#000000" stroke-width="2" stroke-opacity="0.200000" d="M370.11,-57.86C379.68,-60.55 389.98,-64.68 398,-71 419.07,-87.61 433.04,-116.34 440.09,-133.91"/>
<polygon fill="#000000" fill-opacity="0.200000" stroke="#000000" stroke-width="2" stroke-opacity="0.200000" points="438.26,-134.99 442.37,-139.84 442.18,-133.48 438.26,-134.99"/>
</g>
<!-- src/colorScales.js -->
<g id="node4" class="node">
<title>src/colorScales.js</title>
<g id="a_node4"><a xlink:href="src/colorScales.js" xlink:title="colorScales.js">
<path fill="#ffffcc" stroke="black" d="M373.5,-268C373.5,-268 308.5,-268 308.5,-268 305.5,-268 302.5,-265 302.5,-262 302.5,-262 302.5,-256 302.5,-256 302.5,-253 305.5,-250 308.5,-250 308.5,-250 373.5,-250 373.5,-250 376.5,-250 379.5,-253 379.5,-256 379.5,-256 379.5,-262 379.5,-262 379.5,-265 376.5,-268 373.5,-268"/>
<text text-anchor="start" x="310.5" y="-256.8" font-family="Helvetica,sans-Serif" font-size="9.00">colorScales.js</text>
</a>
</g>
</g>
<!-- src/colorScales.js&#45;&gt;src/constants.js -->
<g id="edge3" class="edge">
<title>src/colorScales.js&#45;&gt;src/constants.js</title>
<path fill="none" stroke="#000000" stroke-width="2" stroke-opacity="0.200000" d="M379.67,-251.4C386.27,-248.86 392.7,-245.49 398,-241 422.26,-220.46 435.67,-184.39 441.64,-164.05"/>
<polygon fill="#000000" fill-opacity="0.200000" stroke="#000000" stroke-width="2" stroke-opacity="0.200000" points="443.73,-164.38 443.33,-158.04 439.69,-163.25 443.73,-164.38"/>
</g>
<!-- src/cytoplasmSegment.js -->
<g id="node5" class="node">
<title>src/cytoplasmSegment.js</title>
<g id="a_node5"><a xlink:href="src/cytoplasmSegment.js" xlink:title="cytoplasmSegment.js">
<path fill="#ffffcc" stroke="black" d="M392,-106C392,-106 290,-106 290,-106 287,-106 284,-103 284,-100 284,-100 284,-94 284,-94 284,-91 287,-88 290,-88 290,-88 392,-88 392,-88 395,-88 398,-91 398,-94 398,-94 398,-100 398,-100 398,-103 395,-106 392,-106"/>
<text text-anchor="start" x="292" y="-94.8" font-family="Helvetica,sans-Serif" font-size="9.00">cytoplasmSegment.js</text>
</a>
</g>
</g>
<!-- src/dataExport.js -->
<g id="node6" class="node">
<title>src/dataExport.js</title>
<g id="a_node6"><a xlink:href="src/dataExport.js" xlink:title="dataExport.js">
<path fill="#ffffcc" stroke="black" d="M252.5,-92C252.5,-92 187.5,-92 187.5,-92 184.5,-92 181.5,-89 181.5,-86 181.5,-86 181.5,-80 181.5,-80 181.5,-77 184.5,-74 187.5,-74 187.5,-74 252.5,-74 252.5,-74 255.5,-74 258.5,-77 258.5,-80 258.5,-80 258.5,-86 258.5,-86 258.5,-89 255.5,-92 252.5,-92"/>
<text text-anchor="start" x="189.5" y="-80.8" font-family="Helvetica,sans-Serif" font-size="9.00">dataExport.js</text>
</a>
</g>
</g>
<!-- src/hyphaeGrowth.js -->
<g id="node7" class="node">
<title>src/hyphaeGrowth.js</title>
<g id="a_node7"><a xlink:href="src/hyphaeGrowth.js" xlink:title="hyphaeGrowth.js">
<path fill="#ffffcc" stroke="black" d="M260.5,-122C260.5,-122 179.5,-122 179.5,-122 176.5,-122 173.5,-119 173.5,-116 173.5,-116 173.5,-110 173.5,-110 173.5,-107 176.5,-104 179.5,-104 179.5,-104 260.5,-104 260.5,-104 263.5,-104 266.5,-107 266.5,-110 266.5,-110 266.5,-116 266.5,-116 266.5,-119 263.5,-122 260.5,-122"/>
<text text-anchor="start" x="181.5" y="-110.8" font-family="Helvetica,sans-Serif" font-size="9.00">hyphaeGrowth.js</text>
</a>
</g>
</g>
<!-- src/hyphaeGrowth.js&#45;&gt;src/constants.js -->
<g id="edge4" class="edge">
<title>src/hyphaeGrowth.js&#45;&gt;src/constants.js</title>
<path fill="none" stroke="#000000" stroke-width="2" stroke-opacity="0.200000" d="M259.74,-103.96C263.7,-102.29 267.54,-100.32 271,-98 278.61,-92.9 275.73,-85.94 284,-82 306.87,-71.11 375.49,-70.37 398,-82 419.02,-92.87 432.75,-117.8 439.81,-134"/>
<polygon fill="#000000" fill-opacity="0.200000" stroke="#000000" stroke-width="2" stroke-opacity="0.200000" points="438.03,-135.2 442.27,-139.93 441.91,-133.59 438.03,-135.2"/>
</g>
<!-- src/hyphaeGrowth.js&#45;&gt;src/cytoplasmSegment.js -->
<g id="edge5" class="edge">
<title>src/hyphaeGrowth.js&#45;&gt;src/cytoplasmSegment.js</title>
<path fill="none" stroke="#000000" stroke-width="2" stroke-opacity="0.200000" d="M266.67,-106.86C270.37,-106.36 274.14,-105.85 277.93,-105.35"/>
<polygon fill="#000000" fill-opacity="0.200000" stroke="#000000" stroke-width="2" stroke-opacity="0.200000" points="278.22,-107.43 283.89,-104.54 277.66,-103.26 278.22,-107.43"/>
</g>
<!-- src/main.js -->
<g id="node8" class="node">
<title>src/main.js</title>
<g id="a_node8"><a xlink:href="src/main.js" xlink:title="main.js">
<path fill="#ffffcc" stroke="black" d="M64,-72C64,-72 22,-72 22,-72 19,-72 16,-69 16,-66 16,-66 16,-60 16,-60 16,-57 19,-54 22,-54 22,-54 64,-54 64,-54 67,-54 70,-57 70,-60 70,-60 70,-66 70,-66 70,-69 67,-72 64,-72"/>
<text text-anchor="start" x="26.5" y="-60.8" font-family="Helvetica,sans-Serif" font-size="9.00">main.js</text>
</a>
</g>
</g>
<!-- src/physicsWorld.js -->
<g id="node9" class="node">
<title>src/physicsWorld.js</title>
<g id="a_node9"><a xlink:href="src/physicsWorld.js" xlink:title="physicsWorld.js">
<path fill="#ffffcc" stroke="black" d="M257,-34C257,-34 183,-34 183,-34 180,-34 177,-31 177,-28 177,-28 177,-22 177,-22 177,-19 180,-16 183,-16 183,-16 257,-16 257,-16 260,-16 263,-19 263,-22 263,-22 263,-28 263,-28 263,-31 260,-34 257,-34"/>
<text text-anchor="start" x="185" y="-22.8" font-family="Helvetica,sans-Serif" font-size="9.00">physicsWorld.js</text>
</a>
</g>
</g>
<!-- src/main.js&#45;&gt;src/physicsWorld.js -->
<g id="edge6" class="edge">
<title>src/main.js&#45;&gt;src/physicsWorld.js</title>
<path fill="none" stroke="#000000" stroke-width="2" stroke-opacity="0.200000" d="M70.2,-57.31C96.86,-51.52 138.78,-42.42 171.34,-35.35"/>
<polygon fill="#000000" fill-opacity="0.200000" stroke="#000000" stroke-width="2" stroke-opacity="0.200000" points="171.88,-37.38 177.3,-34.05 170.99,-33.28 171.88,-37.38"/>
</g>
<!-- src/simulation.js -->
<g id="node10" class="node">
<title>src/simulation.js</title>
<g id="a_node10"><a xlink:href="src/simulation.js" xlink:title="simulation.js">
<path fill="#ffffcc" stroke="black" d="M150,-107C150,-107 89,-107 89,-107 86,-107 83,-104 83,-101 83,-101 83,-95 83,-95 83,-92 86,-89 89,-89 89,-89 150,-89 150,-89 153,-89 156,-92 156,-95 156,-95 156,-101 156,-101 156,-104 153,-107 150,-107"/>
<text text-anchor="start" x="91" y="-95.8" font-family="Helvetica,sans-Serif" font-size="9.00">simulation.js</text>
</a>
</g>
</g>
<!-- src/main.js&#45;&gt;src/simulation.js -->
<g id="edge7" class="edge">
<title>src/main.js&#45;&gt;src/simulation.js</title>
<path fill="none" stroke="#000000" stroke-width="2" stroke-opacity="0.200000" d="M63.19,-72.01C72.41,-76.35 83.59,-81.6 93.47,-86.24"/>
<polygon fill="#000000" fill-opacity="0.200000" stroke="#000000" stroke-width="2" stroke-opacity="0.200000" points="92.8,-88.24 99.12,-88.9 94.58,-84.44 92.8,-88.24"/>
</g>
<!-- src/physicsWorld.js&#45;&gt;src/constants.js -->
<g id="edge11" class="edge">
<title>src/physicsWorld.js&#45;&gt;src/constants.js</title>
<path fill="none" stroke="#000000" stroke-width="2" stroke-opacity="0.200000" d="M250.97,-15.95C288.82,-6.47 354.28,3.26 398,-27 433.49,-51.56 442.47,-106.82 444.73,-133.72"/>
<polygon fill="#000000" fill-opacity="0.200000" stroke="#000000" stroke-width="2" stroke-opacity="0.200000" points="442.65,-134.07 445.18,-139.91 446.84,-133.77 442.65,-134.07"/>
</g>
<!-- src/simulation.js&#45;&gt;src/constants.js -->
<g id="edge18" class="edge">
<title>src/simulation.js&#45;&gt;src/constants.js</title>
<path fill="none" stroke="#000000" stroke-width="2" stroke-opacity="0.200000" d="M127.19,-88.75C135.61,-77.91 151.13,-60.37 169,-52 210.34,-32.64 225.77,-46.14 271,-40 326.94,-32.41 350.88,-6.91 398,-38 430.6,-59.51 440.91,-108.52 444.11,-133.6"/>
<polygon fill="#000000" fill-opacity="0.200000" stroke="#000000" stroke-width="2" stroke-opacity="0.200000" points="442.04,-133.99 444.8,-139.71 446.21,-133.51 442.04,-133.99"/>
</g>
<!-- src/simulation.js&#45;&gt;src/canvas.js -->
<g id="edge17" class="edge">
<title>src/simulation.js&#45;&gt;src/canvas.js</title>
<path fill="none" stroke="#000000" stroke-width="2" stroke-opacity="0.200000" d="M131.69,-88.95C141.06,-81.92 155.09,-72.62 169,-68 214.53,-52.88 270.42,-50.84 305.63,-51.41"/>
<polygon fill="#000000" fill-opacity="0.200000" stroke="#000000" stroke-width="2" stroke-opacity="0.200000" points="305.91,-53.52 311.96,-51.55 306,-49.32 305.91,-53.52"/>
</g>
<!-- src/simulation.js&#45;&gt;src/dataExport.js -->
<g id="edge19" class="edge">
<title>src/simulation.js&#45;&gt;src/dataExport.js</title>
<path fill="none" stroke="#000000" stroke-width="2" stroke-opacity="0.200000" d="M156.06,-92.58C162.39,-91.62 169.05,-90.61 175.56,-89.61"/>
<polygon fill="#000000" fill-opacity="0.200000" stroke="#000000" stroke-width="2" stroke-opacity="0.200000" points="175.88,-91.69 181.5,-88.71 175.25,-87.54 175.88,-91.69"/>
</g>
<!-- src/simulation.js&#45;&gt;src/hyphaeGrowth.js -->
<g id="edge20" class="edge">
<title>src/simulation.js&#45;&gt;src/hyphaeGrowth.js</title>
<path fill="none" stroke="#000000" stroke-width="2" stroke-opacity="0.200000" d="M156.06,-103.42C159.75,-103.98 163.55,-104.56 167.37,-105.14"/>
<polygon fill="#000000" fill-opacity="0.200000" stroke="#000000" stroke-width="2" stroke-opacity="0.200000" points="167.12,-107.22 173.37,-106.05 167.76,-103.07 167.12,-107.22"/>
</g>
<!-- src/simulation.js&#45;&gt;src/physicsWorld.js -->
<g id="edge22" class="edge">
<title>src/simulation.js&#45;&gt;src/physicsWorld.js</title>
<path fill="none" stroke="#000000" stroke-width="2" stroke-opacity="0.200000" d="M126.32,-88.93C134.49,-76.87 150.47,-55.59 169,-43 172.62,-40.54 176.62,-38.37 180.72,-36.48"/>
<polygon fill="#000000" fill-opacity="0.200000" stroke="#000000" stroke-width="2" stroke-opacity="0.200000" points="181.68,-38.35 186.37,-34.05 180.03,-34.49 181.68,-38.35"/>
</g>
<!-- src/particleManager.js -->
<g id="node11" class="node">
<title>src/particleManager.js</title>
<g id="a_node11"><a xlink:href="src/particleManager.js" xlink:title="particleManager.js">
<path fill="#ffffcc" stroke="black" d="M263,-155C263,-155 177,-155 177,-155 174,-155 171,-152 171,-149 171,-149 171,-143 171,-143 171,-140 174,-137 177,-137 177,-137 263,-137 263,-137 266,-137 269,-140 269,-143 269,-143 269,-149 269,-149 269,-152 266,-155 263,-155"/>
<text text-anchor="start" x="179" y="-143.8" font-family="Helvetica,sans-Serif" font-size="9.00">particleManager.js</text>
</a>
</g>
</g>
<!-- src/simulation.js&#45;&gt;src/particleManager.js -->
<g id="edge21" class="edge">
<title>src/simulation.js&#45;&gt;src/particleManager.js</title>
<path fill="none" stroke="#000000" stroke-width="2" stroke-opacity="0.200000" d="M133.66,-107.18C143.18,-113.57 156.52,-121.97 169,-128 174,-130.42 179.42,-132.69 184.78,-134.76"/>
<polygon fill="#000000" fill-opacity="0.200000" stroke="#000000" stroke-width="2" stroke-opacity="0.200000" points="184.19,-136.78 190.55,-136.92 185.66,-132.85 184.19,-136.78"/>
</g>
<!-- src/reactionDiffusion.js -->
<g id="node13" class="node">
<title>src/reactionDiffusion.js</title>
<g id="a_node13"><a xlink:href="src/reactionDiffusion.js" xlink:title="reactionDiffusion.js">
<path fill="#ffffcc" stroke="black" d="M265,-202C265,-202 175,-202 175,-202 172,-202 169,-199 169,-196 169,-196 169,-190 169,-190 169,-187 172,-184 175,-184 175,-184 265,-184 265,-184 268,-184 271,-187 271,-190 271,-190 271,-196 271,-196 271,-199 268,-202 265,-202"/>
<text text-anchor="start" x="177" y="-190.8" font-family="Helvetica,sans-Serif" font-size="9.00">reactionDiffusion.js</text>
</a>
</g>
</g>
<!-- src/simulation.js&#45;&gt;src/reactionDiffusion.js -->
<g id="edge23" class="edge">
<title>src/simulation.js&#45;&gt;src/reactionDiffusion.js</title>
<path fill="none" stroke="#000000" stroke-width="2" stroke-opacity="0.200000" d="M126.22,-107.36C134.52,-120.42 150.89,-144.4 169,-161 177.26,-168.57 187.51,-175.48 196.58,-180.92"/>
<polygon fill="#000000" fill-opacity="0.200000" stroke="#000000" stroke-width="2" stroke-opacity="0.200000" points="195.52,-182.74 201.76,-183.95 197.65,-179.11 195.52,-182.74"/>
</g>
<!-- src/renderer.js -->
<g id="node15" class="node">
<title>src/renderer.js</title>
<g id="a_node15"><a xlink:href="src/renderer.js" xlink:title="renderer.js">
<path fill="#ffffcc" stroke="black" d="M246.5,-246C246.5,-246 193.5,-246 193.5,-246 190.5,-246 187.5,-243 187.5,-240 187.5,-240 187.5,-234 187.5,-234 187.5,-231 190.5,-228 193.5,-228 193.5,-228 246.5,-228 246.5,-228 249.5,-228 252.5,-231 252.5,-234 252.5,-234 252.5,-240 252.5,-240 252.5,-243 249.5,-246 246.5,-246"/>
<text text-anchor="start" x="195.5" y="-234.8" font-family="Helvetica,sans-Serif" font-size="9.00">renderer.js</text>
</a>
</g>
</g>
<!-- src/simulation.js&#45;&gt;src/renderer.js -->
<g id="edge24" class="edge">
<title>src/simulation.js&#45;&gt;src/renderer.js</title>
<path fill="none" stroke="#000000" stroke-width="2" stroke-opacity="0.200000" d="M122.45,-107.02C127.22,-127.26 141.16,-176.9 169,-208 175.2,-214.92 183.46,-220.64 191.48,-225.1"/>
<polygon fill="#000000" fill-opacity="0.200000" stroke="#000000" stroke-width="2" stroke-opacity="0.200000" points="190.67,-227.05 196.96,-228 192.63,-223.34 190.67,-227.05"/>
</g>
<!-- src/statistics.js -->
<g id="node16" class="node">
<title>src/statistics.js</title>
<g id="a_node16"><a xlink:href="src/statistics.js" xlink:title="statistics.js">
<path fill="#ffffcc" stroke="black" d="M368,-298C368,-298 314,-298 314,-298 311,-298 308,-295 308,-292 308,-292 308,-286 308,-286 308,-283 311,-280 314,-280 314,-280 368,-280 368,-280 371,-280 374,-283 374,-286 374,-286 374,-292 374,-292 374,-295 371,-298 368,-298"/>
<text text-anchor="start" x="316" y="-286.8" font-family="Helvetica,sans-Serif" font-size="9.00">statistics.js</text>
</a>
</g>
</g>
<!-- src/simulation.js&#45;&gt;src/statistics.js -->
<g id="edge25" class="edge">
<title>src/simulation.js&#45;&gt;src/statistics.js</title>
<path fill="none" stroke="#000000" stroke-width="2" stroke-opacity="0.200000" d="M120.42,-107.29C120.73,-134.12 125.51,-212.33 169,-252 205.07,-284.89 263.24,-291.07 301.55,-291.11"/>
<polygon fill="#000000" fill-opacity="0.200000" stroke="#000000" stroke-width="2" stroke-opacity="0.200000" points="302.01,-293.21 307.99,-291.06 301.97,-289.01 302.01,-293.21"/>
</g>
<!-- src/particleManager.js&#45;&gt;src/brownianParticle.js -->
<g id="edge8" class="edge">
<title>src/particleManager.js&#45;&gt;src/brownianParticle.js</title>
<path fill="none" stroke="#000000" stroke-width="2" stroke-opacity="0.200000" d="M269.06,-138.33C274.07,-137.53 279.19,-136.71 284.27,-135.9"/>
<polygon fill="#000000" fill-opacity="0.200000" stroke="#000000" stroke-width="2" stroke-opacity="0.200000" points="284.62,-137.97 290.21,-134.95 283.95,-133.82 284.62,-137.97"/>
</g>
<!-- src/particleManager.js&#45;&gt;src/constants.js -->
<g id="edge9" class="edge">
<title>src/particleManager.js&#45;&gt;src/constants.js</title>
<path fill="none" stroke="#000000" stroke-width="2" stroke-opacity="0.200000" d="M269.16,-146.64C309.47,-147.18 366.37,-147.94 404.53,-148.45"/>
<polygon fill="#000000" fill-opacity="0.200000" stroke="#000000" stroke-width="2" stroke-opacity="0.200000" points="404.93,-150.56 410.96,-148.54 404.99,-146.36 404.93,-150.56"/>
</g>
<!-- src/quadtree.js -->
<g id="node12" class="node">
<title>src/quadtree.js</title>
<g id="a_node12"><a xlink:href="src/quadtree.js" xlink:title="quadtree.js">
<path fill="#ffffcc" stroke="black" d="M369,-180C369,-180 313,-180 313,-180 310,-180 307,-177 307,-174 307,-174 307,-168 307,-168 307,-165 310,-162 313,-162 313,-162 369,-162 369,-162 372,-162 375,-165 375,-168 375,-168 375,-174 375,-174 375,-177 372,-180 369,-180"/>
<text text-anchor="start" x="315" y="-168.8" font-family="Helvetica,sans-Serif" font-size="9.00">quadtree.js</text>
</a>
</g>
</g>
<!-- src/particleManager.js&#45;&gt;src/quadtree.js -->
<g id="edge10" class="edge">
<title>src/particleManager.js&#45;&gt;src/quadtree.js</title>
<path fill="none" stroke="#000000" stroke-width="2" stroke-opacity="0.200000" d="M263.96,-155.03C275.98,-157.55 288.98,-160.28 300.77,-162.76"/>
<polygon fill="#000000" fill-opacity="0.200000" stroke="#000000" stroke-width="2" stroke-opacity="0.200000" points="300.51,-164.85 306.81,-164.03 301.37,-160.74 300.51,-164.85"/>
</g>
<!-- src/quadtree.js&#45;&gt;src/constants.js -->
<g id="edge12" class="edge">
<title>src/quadtree.js&#45;&gt;src/constants.js</title>
<path fill="none" stroke="#000000" stroke-width="2" stroke-opacity="0.200000" d="M375.03,-163.98C384.54,-161.96 395.02,-159.73 404.92,-157.63"/>
<polygon fill="#000000" fill-opacity="0.200000" stroke="#000000" stroke-width="2" stroke-opacity="0.200000" points="405.57,-159.64 411,-156.33 404.69,-155.53 405.57,-159.64"/>
</g>
<!-- src/reactionDiffusion.js&#45;&gt;src/constants.js -->
<g id="edge13" class="edge">
<title>src/reactionDiffusion.js&#45;&gt;src/constants.js</title>
<path fill="none" stroke="#000000" stroke-width="2" stroke-opacity="0.200000" d="M271.04,-194.41C315.06,-195.03 375.54,-194.21 398,-186 411.25,-181.15 423.74,-171.13 432.58,-162.74"/>
<polygon fill="#000000" fill-opacity="0.200000" stroke="#000000" stroke-width="2" stroke-opacity="0.200000" points="434.3,-163.99 437.1,-158.28 431.35,-161 434.3,-163.99"/>
</g>
<!-- src/thomas.js -->
<g id="node14" class="node">
<title>src/thomas.js</title>
<g id="a_node14"><a xlink:href="src/thomas.js" xlink:title="thomas.js">
<path fill="#ffffcc" stroke="black" d="M365,-224C365,-224 317,-224 317,-224 314,-224 311,-221 311,-218 311,-218 311,-212 311,-212 311,-209 314,-206 317,-206 317,-206 365,-206 365,-206 368,-206 371,-209 371,-212 371,-212 371,-218 371,-218 371,-221 368,-224 365,-224"/>
<text text-anchor="start" x="319" y="-212.8" font-family="Helvetica,sans-Serif" font-size="9.00">thomas.js</text>
</a>
</g>
</g>
<!-- src/reactionDiffusion.js&#45;&gt;src/thomas.js -->
<g id="edge14" class="edge">
<title>src/reactionDiffusion.js&#45;&gt;src/thomas.js</title>
<path fill="none" stroke="#000000" stroke-width="2" stroke-opacity="0.200000" d="M269.75,-202.01C281.55,-204.19 293.94,-206.49 304.97,-208.52"/>
<polygon fill="#000000" fill-opacity="0.200000" stroke="#000000" stroke-width="2" stroke-opacity="0.200000" points="304.67,-210.6 310.95,-209.63 305.43,-206.47 304.67,-210.6"/>
</g>
<!-- src/renderer.js&#45;&gt;src/constants.js -->
<g id="edge16" class="edge">
<title>src/renderer.js&#45;&gt;src/constants.js</title>
<path fill="none" stroke="#000000" stroke-width="2" stroke-opacity="0.200000" d="M252.63,-239.3C296.83,-241.92 374.33,-244.19 398,-230 422.37,-215.39 435.58,-183.13 441.52,-164.02"/>
<polygon fill="#000000" fill-opacity="0.200000" stroke="#000000" stroke-width="2" stroke-opacity="0.200000" points="443.59,-164.44 443.26,-158.09 439.56,-163.25 443.59,-164.44"/>
</g>
<!-- src/renderer.js&#45;&gt;src/colorScales.js -->
<g id="edge15" class="edge">
<title>src/renderer.js&#45;&gt;src/colorScales.js</title>
<path fill="none" stroke="#000000" stroke-width="2" stroke-opacity="0.200000" d="M252.58,-242.84C265.95,-245.31 281.76,-248.23 296.23,-250.91"/>
<polygon fill="#000000" fill-opacity="0.200000" stroke="#000000" stroke-width="2" stroke-opacity="0.200000" points="296.06,-253.01 302.34,-252.04 296.83,-248.88 296.06,-253.01"/>
</g>
<!-- src/statistics.js&#45;&gt;src/constants.js -->
<g id="edge26" class="edge">
<title>src/statistics.js&#45;&gt;src/constants.js</title>
<path fill="none" stroke="#000000" stroke-width="2" stroke-opacity="0.200000" d="M374.21,-285.77C382.76,-283.57 391.43,-279.94 398,-274 430.56,-244.59 440.93,-190.48 444.13,-164.17"/>
<polygon fill="#000000" fill-opacity="0.200000" stroke="#000000" stroke-width="2" stroke-opacity="0.200000" points="446.23,-164.3 444.8,-158.11 442.06,-163.84 446.23,-164.3"/>
</g>
</g>
</svg>
